{"title":"Eiffel 65 - [2004] Eiffel 65 (Special Edition)","uid":5158875,"size":144281571,"categoryP":"audio","categoryS":"music","magnet":"?xt=urn:btih:4c83ebba352610573b6fa7ea5b73b09a3439df3e&amp;dn=Eiffel+65+-+%5B2004%5D+Eiffel+65+%28Special+Edition%29&amp;tr=udp%3A%2F%2Ftracker.openbittorrent.com%3A80&amp;tr=udp%3A%2F%2Fopen.demonii.com%3A1337&amp;tr=udp%3A%2F%2Ftracker.coppersurfer.tk%3A6969&amp;tr=udp%3A%2F%2Fexodus.desync.com%3A6969","seeders":2,"leechers":0,"uploader":"patsyjb","files":30,"time":1258024858,"description":"Disc 1: 192 kbps constant\n\n\nGeneral\nComplete name                    : 01 - Viaggia Insieme a Noi.mp3\nFormat                           : MPEG Audio\nFile size                        : 6.14 MiB\nDuration                         : 4mn 28s\nOverall bit rate                 : 192 Kbps\nAlbum                            : [2004] Eiffel 65 (Special Edition) [Disc 1]\nTrack name                       : Viaggia Insieme A Noi\nTrack name/Position              : 1\nPerformer                        : Eiffel 65\nGenre                            : Electronica\nRecorded date                    : 2004\nWriting library                  : LAME3.87 (beta 1, Oc\nComment                          : Ripeed by Cloyser\n\nAudio\nFormat                           : MPEG Audio\nFormat version                   : Version 1\nFormat profile                   : Layer 3\nDuration                         : 4mn 28s\nBit rate mode                    : Constant\nBit rate                         : 192 Kbps\nChannel(s)                       : 2 channels\nSampling rate                    : 44.1 KHz\nResolution                       : 16 bits\nStream size                      : 6.14 MiB (100%)\nWriting library                  : LAME3.87 (beta 1, Oc\n\n\n\n\n\nDisc 2:\n\n\nGeneral\nComplete name                    : 01 - Voglia Di Dance All Night [2004 Remix].mp3\nFormat                           : MPEG Audio\nFile size                        : 3.59 MiB\nDuration                         : 3mn 58s\nOverall bit rate                 : 127 Kbps\nAlbum                            : [2004] Eiffel 65 (Special Edition) [Disc 2]\nTrack name                       : Voglia Di Dance All Night [2004 Remix]\nTrack name/Position              : 1\nPerformer                        : Eiffel 65\nGenre                            : Electronica\nRecorded date                    : 2004\nWriting library                  : LAME3.93 \n\nAudio\nFormat                           : MPEG Audio\nFormat version                   : Version 1\nFormat profile                   : Layer 3\nDuration                         : 3mn 58s\nBit rate mode                    : Variable\nBit rate                         : 127 Kbps\nMinimum bit rate                 : 128 Kbps\nChannel(s)                       : 2 channels\nSampling rate                    : 44.1 KHz\nResolution                       : 16 bits\nStream size                      : 3.59 MiB (100%)\nWriting library                  : LAME3.93 \nEncoding settings                : -m s -V 7 -q 5 -lowpass 15.2 --vbr-old -b 128\n\n\n\n","torrent":{"xt":"urn:btih:4c83ebba352610573b6fa7ea5b73b09a3439df3e","amp;dn":"Eiffel+65+-+%5B2004%5D+Eiffel+65+%28Special+Edition%29","amp;tr":["udp%3A%2F%2Ftracker.openbittorrent.com%3A80","udp%3A%2F%2Fopen.demonii.com%3A1337","udp%3A%2F%2Ftracker.coppersurfer.tk%3A6969","udp%3A%2F%2Fexodus.desync.com%3A6969"],"infoHash":"4c83ebba352610573b6fa7ea5b73b09a3439df3e","infoHashBuffer":{"type":"Buffer","data":[76,131,235,186,53,38,16,87,59,111,167,234,91,115,176,154,52,57,223,62]},"announce":[],"urlList":[]}}